<svg width="500" height="500" viewBox="0 0 500 500" fill="none" xmlns="http://www.w3.org/2000/svg">
<rect x="384.7" y="181" width="57.7" height="20" transform="rotate(-180 384.7 181)" fill="#55E6A5"/>
<path fill-rule="evenodd" clip-rule="evenodd" d="M358.75 161H347V181H358.75H368.25H370V181H394.5C405.833 181 415 183.75 422 189.25C429.167 194.583 432.75 202.667 432.75 213.5C432.75 224.167 429.167 232.25 422 237.75C415 243.25 405.833 246 394.5 246H370V266H394.5C405.833 266 415.917 263.917 424.75 259.75C433.75 255.417 440.833 249.333 446 241.5C451.333 233.5 454 224.167 454 213.5C454 202.667 451.333 193.333 446 185.5C440.833 177.667 433.75 171.667 424.75 167.5C415.917 163.167 405.833 161 394.5 161H368.25H358.75Z" fill="#55E6A5"/>
<rect x="344.812" y="246" width="19.9126" height="82.8596" transform="rotate(20.456 344.812 246)" fill="#55E6A5"/>
<path d="M278.5 161L302 161L245 313.5L234.5 285L278.5 161Z" fill="#55E6A5"/>
<rect x="345" y="246" width="28" height="20" fill="#55E6A5"/>
<path fill-rule="evenodd" clip-rule="evenodd" d="M345.469 167.959L326.813 161L271.081 310.411L271.206 310.457L297.056 297.75L345.469 167.959Z" fill="#55E6A5"/>
<path d="M302 340.5H249.899C241.543 340.5 234.067 335.305 231.154 327.473L181.5 194" stroke="#55E6A5" stroke-width="12"/>
<circle cx="177" cy="181" r="16" stroke="#55E6A5" stroke-width="6"/>
<path fill-rule="evenodd" clip-rule="evenodd" d="M302 161L244.875 313.679L234.47 284.883L278.25 161H302ZM175.477 193.912L182.141 212.353L180.75 208.75L150.182 287.936L140.431 260.953L167.004 189.311C169.083 191.809 172.08 193.515 175.477 193.912ZM139.198 316.39L128.25 344.75L59.5 161H83.25L120.276 263.519L120.114 263.578L139.198 316.39Z" fill="#55E6A5"/>
<circle cx="320" cy="340" r="16" stroke="#55E6A5" stroke-width="6"/>
</svg>
